PathFileType	4	(X/Y/Z)	C:\Users\Basilio\Documents\Thesis Gigler\squatting_fais\c3dfiles\039\SLS_pre_back2\markers_experimental.trc
DataRate	CameraRate	NumFrames	NumMarkers	Units	OrigDataRate	OrigDataStartFrame	OrigNumFrames
200.000000	200.000000	4	63	mm	200.000000	421	1684
Frame#	Time	FHD			LBHD			RBHD			C7			T10			LSHO			LUUPA			LMUPA			LDUPA			LLEP			LMEP			LRAD			LUL			LRFIN			RSHO			RUPA1			RMUPA			RDUPA			RLEP			RMEP			RRAD			RUL			RUFIN			LASI			RASI			USACR			LSACR			RSACR			LTHI1			LTHI2			LTHI3			LTHI4			LMFC			LTIB1			LTIB2			LTIB3			LTIB4			LLMAL			LMMAL			LHEE			LMT1			LMT2			LMT5			RTHI			RTHI2			RTHI3			RTHI4			RLFC			RMFC			RTIB1			RTIB2			RTIB3			RTIB4			RLMAL			RMMAL			RHEE			RMT1			RMT2			RMT5			LLFC			CLAV			*61			*62			
		X1	Y1	Z1	X2	Y2	Z2	X3	Y3	Z3	X4	Y4	Z4	X5	Y5	Z5	X6	Y6	Z6	X7	Y7	Z7	X8	Y8	Z8	X9	Y9	Z9	X10	Y10	Z10	X11	Y11	Z11	X12	Y12	Z12	X13	Y13	Z13	X14	Y14	Z14	X15	Y15	Z15	X16	Y16	Z16	X17	Y17	Z17	X18	Y18	Z18	X19	Y19	Z19	X20	Y20	Z20	X21	Y21	Z21	X22	Y22	Z22	X23	Y23	Z23	X24	Y24	Z24	X25	Y25	Z25	X26	Y26	Z26	X27	Y27	Z27	X28	Y28	Z28	X29	Y29	Z29	X30	Y30	Z30	X31	Y31	Z31	X32	Y32	Z32	X33	Y33	Z33	X34	Y34	Z34	X35	Y35	Z35	X36	Y36	Z36	X37	Y37	Z37	X38	Y38	Z38	X39	Y39	Z39	X40	Y40	Z40	X41	Y41	Z41	X42	Y42	Z42	X43	Y43	Z43	X44	Y44	Z44	X45	Y45	Z45	X46	Y46	Z46	X47	Y47	Z47	X48	Y48	Z48	X49	Y49	Z49	X50	Y50	Z50	X51	Y51	Z51	X52	Y52	Z52	X53	Y53	Z53	X54	Y54	Z54	X55	Y55	Z55	X56	Y56	Z56	X57	Y57	Z57	X58	Y58	Z58	X59	Y59	Z59	X60	Y60	Z60	X61	Y61	Z61	X62	Y62	Z62	X63	Y63	Z63	

422	2.105	-202.1303100585938	1726.314208984375	-642.0875244140626	-366.0668945312501	1719.385986328125	-758.6697998046876	-334.4830627441407	1718.528930664063	-620.7037963867189	-420.4037170410157	1550.159912109375	-702.1448364257814	-452.4693298339845	1244.089233398438	-737.9608154296876	-352.7926940917969	1564.889404296875	-861.4161376953127	-193.5014190673829	1522.18896484375	-977.064880371094	-167.8189544677735	1552.297973632813	-945.9385986328127	-123.6640625	1528.862182617188	-978.3734130859377	-56.53915405273439	1534.197387695313	-975.0571899414065	-53.63654708862306	1461.711669921875	-944.8750610351565	223.1026153564454	1550.46484375	-881.617126464844	223.2052001953126	1562.385620117188	-957.287780761719	299.0509338378907	1594.134033203125	-872.015075683594	-304.4630737304688	1530.791625976563	-542.9611816406251	-143.3084259033203	1453.004760742188	-455.4660034179689	-116.5725021362305	1488.700073242188	-477.4672241210939	-73.68058013916017	1451.512573242188	-457.0318298339845	-10.98212146759033	1467.290283203125	-469.4983520507814	-7.033695220947267	1403.723999023438	-514.1877441406251	268.2354431152344	1525.501708984375	-573.1876831054689	276.2244567871094	1510.689575195313	-499.0586547851564	349.9900817871094	1569.715209960938	-571.8546142578126	-306.3137512207032	1058.176879882813	-883.5005493164065	-279.6327209472657	1035.808227539063	-663.7478637695314	-472.3940429687501	1114.685913085938	-745.6123046875001	-480.4321899414064	1083.938842773438	-774.9140625000002	-472.3645019531251	1079.851684570313	-715.6925048828126	-337.7376708984376	795.1856079101565	-992.9357910156252	-288.8297424316407	728.1425170898439	-1014.011962890625	-242.0984497070313	737.6304931640626	-1011.915222167969	-303.1252441406251	667.8139648437501	-1006.488037109375	-241.6007690429688	531.8696289062501	-910.1339111328127	-358.8889465332032	466.7457275390626	-980.9052734375002	-426.8406982421876	523.0331420898439	-991.8345947265627	-416.4436035156251	481.3432922363282	-987.118835449219	-475.3739318847657	448.4548950195314	-931.5577392578127	-660.0390014648439	457.2673339843751	-904.7207031250002	-620.9058837890626	431.536346435547	-830.5560302734377	-695.0485229492189	511.6585693359376	-843.0498657226565	-666.6996459960939	278.7119140625001	-839.1993408203127	-689.1298828125001	284.1391601562501	-875.3950805664065	-741.7225952148439	323.7418823242188	-900.9907836914065	-278.7205200195313	771.147644042969	-602.5701293945314	-226.3490447998047	729.2357177734376	-603.7420654296876	-196.2659759521485	739.9942016601564	-611.0501098632814	-233.0480957031251	644.9376831054689	-620.7407836914064	-238.9831085205079	512.5018310546876	-656.4504394531251	-204.3493957519532	517.1016235351564	-768.5419921875002	-240.4232482910157	307.0851440429688	-703.2640991210939	-337.0597229003907	259.8627319335938	-701.2916259765626	-293.6282348632813	242.1617126464844	-706.8091430664064	-285.2110900878907	196.3813629150391	-744.8855590820314	-369.8672790527344	116.253402709961	-735.1899414062501	-336.5731506347657	140.8070526123047	-816.2860107421877	-440.8969726562501	99.48451995849612	-791.417175292969	-215.4940185546876	57.68005752563478	-803.860534667969	-218.5534973144532	55.11829376220705	-757.2093505859376	-275.1600036621094	33.47769927978516	-708.5101318359376	-282.1425781250001	581.6329956054689	-1008.315734863281	nan	nan	nan	nan	nan	nan	nan	nan	nan	
423	2.11	-201.9010620117188	1725.899536132813	-642.3405761718751	-365.7203369140626	1718.724853515625	-758.8712768554689	-334.2437133789063	1718.009887695313	-620.6503295898439	-420.2976379394532	1549.782348632813	-702.3073120117189	-452.5445861816407	1243.651977539063	-738.0232543945314	-352.9465026855469	1564.43408203125	-861.573669433594	-193.3658142089844	1521.658569335938	-977.0651855468752	-167.6318359375	1551.736450195313	-945.9466552734377	-123.5727081298828	1528.311767578125	-978.4020996093752	-56.40120697021486	1533.619262695313	-975.085876464844	-53.9027442932129	1461.74267578125	-944.899353027344	223.1330261230469	1549.95361328125	-881.5388793945315	223.3648529052735	1561.809204101563	-957.191345214844	299.2135620117188	1593.57666015625	-871.952087402344	-304.3733215332032	1530.225463867188	-543.0166625976564	-143.3280639648438	1452.568237304688	-455.4490356445314	-116.6765823364258	1488.33203125	-477.5387573242189	-73.59130859375001	1450.961669921875	-457.0276184082032	-10.97735691070557	1466.821166992188	-469.5096435546876	-7.09172296524048	1403.358520507813	-514.1997070312501	268.1843872070313	1525.168579101563	-573.1890869140626	276.3832092285157	1510.660400390625	-498.7413024902345	349.9846496582032	1569.370361328125	-571.8250122070314	-306.4953613281251	1057.810302734375	-883.5064086914065	-279.8626708984376	1035.29931640625	-663.7350463867189	-472.6819458007814	1114.379150390625	-745.6835327148439	-480.6844482421876	1083.495239257813	-775.0220947265627	-472.7144165039064	1079.580444335938	-715.7159423828126	-337.8889465332032	794.7259521484377	-992.890075683594	-288.8890991210938	727.6114501953126	-1013.998291015625	-242.3074188232422	737.2266845703126	-1011.899841308594	-303.3239746093751	667.4494628906251	-1006.46484375	-241.8176574707032	531.4493408203126	-910.1306152343752	-358.9032592773438	465.8229064941407	-980.677185058594	-427.0322875976564	522.6087646484376	-991.8814697265627	-416.7241210937501	480.9476928710939	-987.2347412109377	-475.7550659179689	447.8262939453126	-931.5290527343752	-660.3551635742189	456.9299621582032	-904.9238891601565	-620.8981323242189	431.7426147460939	-830.2703857421877	-695.3377685546876	511.2476196289064	-843.3878173828127	-667.1764526367189	278.3144836425782	-839.3526611328127	-689.6370239257814	283.7651672363282	-875.654479980469	-742.2182617187501	323.7151184082032	-901.135192871094	-278.7494201660157	770.831970214844	-602.6115112304689	-226.2583007812501	728.7551879882814	-603.6613769531251	-196.2754516601563	739.7670898437501	-611.0053710937501	-232.8415832519532	644.6434936523439	-620.6572265625001	-238.6553192138672	512.3590698242189	-656.3281250000001	-204.0290527343751	516.9405517578126	-768.4473876953127	-240.3049011230469	306.9948120117188	-703.2196655273439	-336.9095458984376	259.8101501464844	-701.3172607421876	-293.4708251953126	242.1246795654297	-706.8186035156251	-285.1652221679688	195.9760131835938	-745.0409545898439	-369.8431701660157	116.2108230590821	-735.2388305664064	-336.5105285644532	140.8159790039063	-816.2646484375002	-440.6817321777345	99.23969268798831	-791.5479736328127	-215.5406494140626	57.672176361084	-803.8515625000002	-219.6622009277344	55.91850662231447	-758.2213745117189	-275.1544799804688	33.48476028442384	-708.5166625976564	-282.4075927734376	581.1599121093751	-1008.312255859375	nan	nan	nan	nan	nan	nan	nan	nan	nan	
424	2.115	-201.8141632080079	1725.2939453125	-642.4698486328126	-365.7070312500001	1718.184936523438	-758.8396606445314	-334.0238647460938	1717.569580078125	-620.7695312500001	-420.2056579589845	1549.371337890625	-702.4264526367189	-452.6505432128907	1243.340576171875	-738.0897827148439	-353.1425170898438	1564.151977539063	-861.7462158203127	-193.1277160644532	1521.066772460938	-977.1298828125002	-167.5827789306641	1551.245239257813	-946.0029907226565	-123.3976440429688	1527.626342773438	-978.4255371093752	-56.16656875610353	1533.052734375	-975.0711669921877	-53.84505462646486	1461.590698242188	-944.2226562500002	223.2598419189454	1549.428955078125	-881.3807373046877	223.4772491455079	1561.160034179688	-957.0816650390627	299.3021850585938	1593.1513671875	-871.8791503906252	-304.2461242675782	1529.670288085938	-543.0447387695314	-143.2683868408203	1452.232666015625	-455.4222717285157	-116.7173690795899	1487.951904296875	-477.6299438476564	-73.65988922119142	1450.669067382813	-457.165008544922	-11.00120735168457	1466.447998046875	-469.2727966308595	-7.083834648132326	1403.039184570313	-514.2611694335939	268.1879577636719	1524.826904296875	-573.1541137695314	276.4353637695313	1510.218017578125	-498.6455688476564	349.9237976074219	1569.04345703125	-571.7680664062501	-306.9049682617188	1057.364379882813	-883.4805908203127	-280.0604553222657	1034.975463867188	-663.7678222656251	-472.8494262695314	1113.932983398438	-745.7947998046876	-481.0574645996095	1083.276733398438	-775.0376586914065	-472.9585266113282	1079.2470703125	-715.7432861328126	-338.0476684570313	794.1807250976565	-993.0003051757815	-289.0194091796876	727.0927734375001	-1014.086608886719	-242.4806823730469	736.7874145507814	-1011.787719726563	-303.6571655273438	667.0007324218751	-1006.454833984375	-242.0843963623047	530.8177490234376	-909.9160156250002	-359.6470336914063	465.9110107421876	-980.8367919921877	-427.3430480957032	522.1993408203126	-991.9981079101565	-416.3142700195314	480.0241088867189	-987.1635742187502	-476.0418701171876	447.3611450195314	-931.9666748046877	-660.5775756835939	456.4087219238282	-905.1577148437502	-621.9238281250001	430.8821716308595	-831.2652587890627	-695.7325439453126	510.9193725585939	-843.635681152344	-667.7084960937501	277.9665832519532	-839.5980224609377	-690.1008300781251	283.4907531738282	-875.936706542969	-742.6325073242189	323.4001770019532	-901.4691162109377	-278.6518554687501	770.5630493164065	-602.6192626953126	-226.1060485839844	728.4874877929689	-603.6732788085939	-196.2085571289063	739.5865478515626	-610.8847045898439	-232.6352233886719	644.3908081054689	-620.6221923828126	-238.232650756836	512.2174072265626	-656.1448364257814	-203.6625366210938	516.7776489257814	-768.262390136719	-240.1746673583985	306.9129333496094	-703.1723632812501	-336.7601318359376	259.8553466796876	-701.4070434570314	-293.3341064453126	242.0635070800782	-706.8217163085939	-285.0455322265626	196.2285614013672	-744.8044433593751	-369.8225097656251	116.1768188476563	-735.1697387695314	-336.4783325195313	140.8105010986328	-816.2476196289065	-440.8727111816407	99.4726257324219	-791.4489746093752	-215.5371093750001	57.70850753784181	-803.8255615234377	-218.9203796386719	55.27825927734376	-757.4913940429689	-275.1543273925782	33.47681427001954	-708.5215454101564	-282.5545043945313	580.6451416015626	-1008.304870605469	nan	nan	nan	nan	nan	nan	nan	nan	nan	
425	2.12	-201.5862274169922	1724.752319335938	-642.4847412109376	-365.7431030273438	1717.711791992188	-758.7940063476564	-333.7819824218751	1717.128662109375	-620.8010253906251	-420.0262756347657	1548.839599609375	-702.5304565429689	-452.7783203125001	1243.025756835938	-738.1875610351564	-353.0062561035157	1563.642456054688	-861.7661132812502	-193.0040740966797	1520.587036132813	-977.212585449219	-167.5018310546875	1550.761840820313	-946.124938964844	-123.2641830444336	1527.11474609375	-978.4741210937502	-56.01500320434572	1532.484252929688	-975.0154418945315	-53.72736740112306	1461.039428710938	-944.3013916015627	223.365219116211	1548.768188476563	-881.2313232421877	223.7222442626954	1560.602661132813	-956.9717407226565	299.4596557617188	1592.443481445313	-871.737487792969	-304.1931457519532	1529.1904296875	-543.1495971679689	-143.3699493408203	1451.819580078125	-455.4794921875001	-116.6961364746094	1487.417236328125	-477.680389404297	-73.72511291503908	1450.253662109375	-457.2533569335939	-10.9682788848877	1466.000610351563	-469.2811584472657	-7.070473670959474	1402.634399414063	-514.3637084960939	268.2798156738282	1524.5830078125	-573.1480102539064	276.4306640625001	1509.960571289063	-498.5808410644532	349.8304748535157	1568.639404296875	-571.7289428710939	-307.1924438476563	1056.900024414063	-883.4479980468752	-280.3956298828126	1034.505737304688	-663.7984008789064	-473.1260375976564	1113.536010742188	-745.8890380859376	-481.2382202148439	1082.730590820313	-775.1359863281252	-473.1385192871095	1078.885009765625	-715.9467163085939	-338.1101989746094	793.6904907226565	-993.0002441406252	-289.1777038574219	726.5806274414064	-1014.072937011719	-242.6745300292969	736.3627929687501	-1011.733276367188	-303.8556518554688	666.4703369140626	-1006.417236328125	-242.4905242919922	530.2893676757814	-909.8822021484377	-360.0371093750001	465.5935974121095	-981.058288574219	-427.6815490722657	521.7910766601564	-992.0551757812502	-417.1627502441407	479.9505920410157	-987.3704833984377	-476.3852539062501	446.969940185547	-932.3250732421877	-660.7459106445314	455.5543212890626	-905.4795532226565	-622.2349243164064	430.5145568847657	-831.5913085937502	-696.1766357421876	510.5293273925782	-843.969909667969	-668.2342529296876	277.6072998046876	-839.8533935546877	-690.4712524414064	283.2723999023438	-876.0826416015627	-743.1463623046876	323.1579589843751	-901.773376464844	-278.5657958984376	770.3107910156252	-602.6141357421876	-226.0388641357422	728.2965698242189	-603.5914306640626	-196.1493530273438	739.3688964843751	-610.8034057617189	-232.3078613281251	643.9207763671876	-620.3233032226564	-238.1143188476563	511.797576904297	-656.2512207031251	-203.4048919677735	516.7019042968751	-767.9468383789064	-240.0429077148438	306.8424377441407	-703.0286865234376	-336.6012878417969	259.6994628906251	-701.2374877929689	-293.1967468261719	242.025131225586	-706.7671508789064	-284.9859008789063	196.139633178711	-744.7587280273439	-369.8942260742188	116.1907653808594	-735.2298583984376	-336.4834289550782	140.8453063964844	-816.213806152344	-440.8889160156251	99.48442840576175	-791.4151000976565	-215.5198059082032	57.75390625000001	-803.7709960937502	-218.8919830322266	55.30033493041994	-757.4650878906251	-275.1685485839844	33.44686889648438	-708.4993286132814	-282.7303161621094	580.0804443359376	-1008.292846679688	nan	nan	nan	nan	nan	nan	nan	nan	nan	
